HIERARCHY
ROOT hip
{
  OFFSET 0 0 0
  CHANNELS 6 Xposition Yposition Zposition Zrotation Yrotation Xrotation
  JOINT abdomen
  {
    OFFSET 0 20.6881 -0.73152
    CHANNELS 3 Zrotation Xrotation Yrotation
    JOINT chest
    {
      OFFSET 0 11.7043 -0.48768
      CHANNELS 3 Zrotation Xrotation Yrotation
      JOINT neck
      {
        OFFSET 0 22.1894 -2.19456
        CHANNELS 3 Zrotation Xrotation Yrotation
        JOINT head
        {
          OFFSET -0.24384 7.07133 1.2192
          CHANNELS 3 Zrotation Xrotation Yrotation
          JOINT leftEye
          {
            OFFSET 4.14528 8.04674 8.04672
            CHANNELS 3 Zrotation Xrotation Yrotation
            End Site
            {
              OFFSET 1 0 0
            }
          }
          JOINT rightEye
          {
            OFFSET -3.6576 8.04674 8.04672
            CHANNELS 3 Zrotation Xrotation Yrotation
            End Site
            {
              OFFSET 1 0 0
            }
          }
        }
      }
      JOINT rCollar
      {
        OFFSET -2.68224 19.2634 -4.8768
        CHANNELS 3 Zrotation Xrotation Yrotation
        JOINT rShldr
        {
          OFFSET -8.77824 -1.95073 1.46304
          CHANNELS 3 Zrotation Xrotation Yrotation
          JOINT rForeArm
          {
            OFFSET -28.1742 -1.7115 0.48768
            CHANNELS 3 Zrotation Xrotation Yrotation
            JOINT rHand
            {
              OFFSET -22.5879 0.773209 7.07136
              CHANNELS 3 Zrotation Xrotation Yrotation
              JOINT rThumb1
              {
                OFFSET -1.2192 -0.487915 3.41376
                CHANNELS 3 Zrotation Xrotation Yrotation
                JOINT rThumb2
                {
                  OFFSET -3.37035 -0.52449 3.41376
                  CHANNELS 3 Zrotation Xrotation Yrotation
                  End Site
                  {
                    OFFSET -1.78271 -1.18214 1.43049
                  }
                }
              }
              JOINT rIndex1
              {
                OFFSET -7.75947 0.938293 5.60832
                CHANNELS 3 Zrotation Xrotation Yrotation
                JOINT rIndex2
                {
                  OFFSET -2.54057 -0.884171 1.56538
                  CHANNELS 3 Zrotation Xrotation Yrotation
                  End Site
                  {
                    OFFSET -1.62519 -0.234802 1.16502
                  }
                }
              }
              JOINT rMid1
              {
                OFFSET -8.24714 1.18213 3.41376
                CHANNELS 3 Zrotation Xrotation Yrotation
                JOINT rMid2
                {
                  OFFSET -3.10165 -0.590103 1.0647
                  CHANNELS 3 Zrotation Xrotation Yrotation
                  End Site
                  {
                    OFFSET -2.48547 -0.328903 0.83742
                  }
                }
              }
              JOINT rRing1
              {
                OFFSET -8.82822 0.546677 1.51678
                CHANNELS 3 Zrotation Xrotation Yrotation
                JOINT rRing2
                {
                  OFFSET -2.60934 -0.819778 -0.0198488
                  CHANNELS 3 Zrotation Xrotation Yrotation
                  End Site
                  {
                    OFFSET -2.33842 -0.294052 0.168128
                  }
                }
              }
              JOINT rPinky1
              {
                OFFSET -8.27202 -0.0477905 -0.4584
                CHANNELS 3 Zrotation Xrotation Yrotation
                JOINT rPinky2
                {
                  OFFSET -1.82734 -0.647385 -0.700984
                  CHANNELS 3 Zrotation Xrotation Yrotation
                  End Site
                  {
                    OFFSET -1.69225 -0.51767 -0.607171
                  }
                }
              }
            }
          }
        }
      }
      JOINT lCollar
      {
        OFFSET 2.68224 19.2634 -4.8768
        CHANNELS 3 Zrotation Xrotation Yrotation
        JOINT lShldr
        {
          OFFSET 8.77824 -1.95073 1.46304
          CHANNELS 3 Zrotation Xrotation Yrotation
          JOINT lForeArm
          {
            OFFSET 28.1742 -1.7115 0.48768
            CHANNELS 3 Zrotation Xrotation Yrotation
            JOINT lHand
            {
              OFFSET 22.5879 0.773209 7.07136
              CHANNELS 3 Zrotation Xrotation Yrotation
              JOINT lThumb1
              {
                OFFSET 1.2192 -0.487915 3.41376
                CHANNELS 3 Zrotation Xrotation Yrotation
                JOINT lThumb2
                {
                  OFFSET 3.37035 -0.52449 3.41376
                  CHANNELS 3 Zrotation Xrotation Yrotation
                  End Site
                  {
                    OFFSET 1.78271 -1.18214 1.43049
                  }
                }
              }
              JOINT lIndex1
              {
                OFFSET 7.75947 0.938293 5.60832
                CHANNELS 3 Zrotation Xrotation Yrotation
                JOINT lIndex2
                {
                  OFFSET 2.54057 -0.884171 1.56538
                  CHANNELS 3 Zrotation Xrotation Yrotation
                  End Site
                  {
                    OFFSET 1.62519 -0.234802 1.16502
                  }
                }
              }
              JOINT lMid1
              {
                OFFSET 8.24714 1.18213 3.41376
                CHANNELS 3 Zrotation Xrotation Yrotation
                JOINT lMid2
                {
                  OFFSET 3.10165 -0.590103 1.0647
                  CHANNELS 3 Zrotation Xrotation Yrotation
                  End Site
                  {
                    OFFSET 2.48547 -0.328903 0.83742
                  }
                }
              }
              JOINT lRing1
              {
                OFFSET 8.82822 0.546677 1.51678
                CHANNELS 3 Zrotation Xrotation Yrotation
                JOINT lRing2
                {
                  OFFSET 2.60934 -0.819778 -0.0198488
                  CHANNELS 3 Zrotation Xrotation Yrotation
                  End Site
                  {
                    OFFSET 2.33842 -0.294052 0.168128
                  }
                }
              }
              JOINT lPinky1
              {
                OFFSET 8.27202 -0.0477905 -0.4584
                CHANNELS 3 Zrotation Xrotation Yrotation
                JOINT lPinky2
                {
                  OFFSET 1.82734 -0.647385 -0.700984
                  CHANNELS 3 Zrotation Xrotation Yrotation
                  End Site
                  {
                    OFFSET 1.69225 -0.51767 -0.607171
                  }
                }
              }
            }
          }
        }
      }
    }
  }
  JOINT rButtock
  {
    OFFSET -8.77824 4.35084 1.2192
    CHANNELS 3 Zrotation Xrotation Yrotation
    JOINT rThigh
    {
      OFFSET 0 -1.70687 -2.19456
      CHANNELS 3 Zrotation Xrotation Yrotation
      JOINT rShin
      {
        OFFSET 0 -36.8199 0.73152
        CHANNELS 3 Zrotation Xrotation Yrotation
        JOINT rFoot
        {
          OFFSET 0.73152 -45.1104 -5.12064
          CHANNELS 3 Zrotation Xrotation Yrotation
          End Site
          {
            OFFSET -1.1221 -3.69964 12.103
          }
        }
      }
    }
  }
  JOINT lButtock
  {
    OFFSET 8.77824 4.35084 1.2192
    CHANNELS 3 Zrotation Xrotation Yrotation
    JOINT lThigh
    {
      OFFSET 0 -1.70687 -2.19456
      CHANNELS 3 Zrotation Xrotation Yrotation
      JOINT lShin
      {
        OFFSET 0 -36.8199 0.73152
        CHANNELS 3 Zrotation Xrotation Yrotation
        JOINT lFoot
        {
          OFFSET -0.73152 -45.1104 -5.12064
          CHANNELS 3 Zrotation Xrotation Yrotation
          End Site
          {
            OFFSET 1.1221 -3.69964 12.103
          }
        }
      }
    }
  }
}
MOTION
Frames:	9
Frame Time:	0.00833333
-7.33132 85.1388 130.717 0.0 0.0 0.0 0.410575 -0.00336393 0.0117802 0.113455 -0.00539469 0.0196586 1.57762e-14 7.95139e-16 -4.96963e-17 4.72331e-14 9.54166e-15 -1.53748e-16 -0.0 0.0 0.0 -0.0 0.0 0.0 7.95022e-15 -1.70831e-17 4.96962e-17 1.674e-13 -1.49089e-16 1.19271e-15 2.846e-12 -8.61732e-13 -4.77083e-14 3.25615e-11 7.92182e-13 -3.81667e-14 7.68066e-11 -1.56814e-13 -1.78111e-13 1.32636e-10 -2.70347e-13 -3.28392e-13 7.68116e-11 -1.58233e-13 -1.87653e-13 7.73091 5.47488 0.417314 7.68051e-11 -1.56941e-13 -1.87653e-13 2.90554 0.965183 0.102902 7.68144e-11 -1.56543e-13 -1.87653e-13 10.2786 0.731801 0.0259123 7.6802e-11 -1.54654e-13 -1.84472e-13 2.22167 -0.733487 -0.20892 7.85368e-15 -1.70831e-17 -9.93923e-17 1.63872e-13 -2.42269e-16 -7.95139e-16 2.8453e-12 8.37679e-13 -3.49861e-14 3.2559e-11 -9.22286e-13 -4.45278e-14 7.68043e-11 -1.85716e-13 -1.94014e-13 1.32646e-10 -3.27597e-13 -3.22031e-13 7.6802e-11 -1.85267e-13 -1.7175e-13 -7.73091 5.47488 -0.417314 7.68044e-11 -1.86162e-13 -1.94014e-13 -2.90554 0.965183 -0.102902 7.68048e-11 -1.85963e-13 -1.86062e-13 -10.2786 0.731801 -0.0259123 7.68104e-11 -1.83279e-13 -1.94014e-13 -2.22167 -0.733487 0.20892 -2.03217e-16 0.0 -3.88251e-19 0.770895 -4.17179 -0.0656915 -0.00265694 2.00547 -0.0182888 -0.462131 2.16691 0.0961413 2.03217e-16 0.0 3.88251e-19 -0.142945 -2.55997 0.0260621 0.0071611 -0.914059 0.0621534 0.453473 3.47456 -0.121182
-7.38546 83.6746 125.592 175.413 -0.9423 -155.335 -1.99096 -6.45735 -1.64414 1.07026 3.95976 -0.503546 -0.587669 4.23189 -2.15682 1.68425 -2.67996 -3.67104 -0.0 0.0 0.0 -0.0 0.0 0.0 -5.01432e-14 -1.7308e-13 -5.62355e-14 22.6047 3.25919 -0.824401 -6.38824 -3.52078 9.21722 0.0496159 4.95107 0.686524 7.35287e-10 -1.13008e-09 1.0628e-09 1.28476e-09 -1.95974e-09 1.82728e-09 7.35292e-10 -1.13008e-09 1.06279e-09 7.73091 5.47488 0.417314 7.35286e-10 -1.13008e-09 1.0628e-09 2.90554 0.965183 0.102902 7.35293e-10 -1.13008e-09 1.06279e-09 10.2786 0.731801 0.0259123 7.35283e-10 -1.13008e-09 1.0628e-09 2.22167 -0.733487 -0.20892 -5.02759e-14 -1.73079e-13 -5.64129e-14 -20.7525 7.06802 -1.92038 3.89187 -1.70763 -6.14318 0.000225471 0.0788957 -0.0110939 1.14659e-09 -1.37028e-10 -8.29961e-10 1.97801e-09 -2.38526e-10 -1.43565e-09 1.14658e-09 -1.37029e-10 -8.29943e-10 -7.73091 5.47488 -0.417314 1.14659e-09 -1.3703e-10 -8.29962e-10 -2.90554 0.965183 -0.102902 1.14658e-09 -1.3703e-10 -8.29955e-10 -10.2786 0.731801 -0.0259123 1.14659e-09 -1.37027e-10 -8.2996e-10 -2.22167 -0.733487 0.20892 -2.03217e-16 0.0 -3.88251e-19 0.181835 -11.7421 1.02728 0.00200808 4.00176 0.0381929 -0.638783 -1.98456 -1.28745 2.03217e-16 0.0 3.88251e-19 -1.65045 -9.40531 -2.09181 0.00815197 1.09106 0.0386975 0.535165 1.78551 -0.0161006
-7.32066 83.652 125.697 175.895 -1.1965 -154.773 -4.97236 -13.2443 -3.4812 2.1679 8.15464 -1.06866 -0.863329 8.67614 -4.475 3.0888 -5.4741 -7.57761 -0.0 0.0 0.0 -0.0 0.0 0.0 -1.14847e-13 -3.62393e-13 -1.20044e-13 46.5985 6.70479 -1.68178 -11.897 -6.91184 19.0339 -0.0287374 10.1526 1.42535 1.46543e-09 -2.376e-09 2.23174e-09 2.56213e-09 -4.12029e-09 3.83695e-09 1.46544e-09 -2.376e-09 2.23173e-09 7.73091 5.47488 0.417314 1.46543e-09 -2.376e-09 2.23174e-09 2.90554 0.965183 0.102902 1.46544e-09 -2.376e-09 2.23173e-09 10.2786 0.731801 0.0259123 1.46543e-09 -2.376e-09 2.23174e-09 2.22167 -0.733487 -0.20892 -1.15018e-13 -3.62392e-13 -1.20252e-13 -42.1427 14.5798 -4.049 7.62093 -3.45434 -12.6715 0.000653974 0.122832 -0.0172788 2.3335e-09 -2.63215e-10 -1.73188e-09 4.0255e-09 -4.58419e-10 -2.99583e-09 2.33349e-09 -2.63218e-10 -1.73186e-09 -7.73091 5.47488 -0.417314 2.33349e-09 -2.63218e-10 -1.73188e-09 -2.90554 0.965183 -0.102902 2.33349e-09 -2.63218e-10 -1.73187e-09 -10.2786 0.731801 -0.0259123 2.3335e-09 -2.63216e-10 -1.73188e-09 -2.22167 -0.733487 0.20892 -2.03217e-16 0.0 -3.88251e-19 -0.1355 -19.7157 2.26686 0.00264753 6.10425 0.0981768 -1.04491 -6.36818 -2.76701 2.03217e-16 0.0 3.88251e-19 -3.8449 -16.5886 -4.45827 0.0109182 3.20756 0.0139649 0.628114 -0.000588893 0.0894178
-7.25913 83.6323 125.824 176.366 -1.4382 -154.2 -7.96816 -19.2989 -5.21868 3.20512 11.8861 -1.58024 -0.789339 12.6228 -6.61336 4.02119 -7.90739 -11.108 -0.0 0.0 0.0 -0.0 0.0 0.0 -1.6633e-13 -5.19206e-13 -1.68806e-13 68.099 9.76942 -2.50556 -15.8747 -9.47064 28.0137 -0.217471 14.8445 2.12276 2.05225e-09 -3.38993e-09 3.18876e-09 3.58902e-09 -5.87868e-09 5.48251e-09 2.05225e-09 -3.38992e-09 3.18876e-09 7.73091 5.47488 0.417314 2.05225e-09 -3.38993e-09 3.18877e-09 2.90554 0.965183 0.102902 2.05225e-09 -3.38992e-09 3.18875e-09 10.2786 0.731801 0.0259123 2.05224e-09 -3.38993e-09 3.18877e-09 2.22167 -0.733487 -0.20892 -1.66535e-13 -5.19203e-13 -1.6904e-13 -60.7519 21.1052 -6.12995 10.5948 -4.88777 -18.491 0.00076807 0.236687 -0.0332821 3.28616e-09 -4.10712e-10 -2.48949e-09 5.66874e-09 -7.14922e-10 -4.3063e-09 3.28614e-09 -4.10716e-10 -2.48948e-09 -7.73091 5.47488 -0.417314 3.28615e-09 -4.10717e-10 -2.4895e-09 -2.90554 0.965183 -0.102902 3.28614e-09 -4.10717e-10 -2.48949e-09 -10.2786 0.731801 -0.0259123 3.28616e-09 -4.10714e-10 -2.48949e-09 -2.22167 -0.733487 0.20892 -2.03217e-16 0.0 -3.88251e-19 -0.03786 -26.8442 3.52907 -0.000571762 7.99432 0.152335 -1.60053 -10.263 -4.11817 2.03217e-16 0.0 3.88251e-19 -6.29476 -22.9695 -6.78317 0.015061 5.1013 -0.00825218 0.717117 -1.59261 0.193714
-7.21099 83.6089 126.02 176.815 -1.5341 -153.522 -10.1405 -23.5882 -6.45578 3.93076 14.4631 -1.92844 -0.53012 15.3942 -8.16784 4.49964 -9.56433 -13.6079 -0.0 0.0 0.0 -0.0 0.0 0.0 -1.8476e-13 -5.94766e-13 -1.7995e-13 83.1768 11.8884 -3.21648 -18.2435 -10.9508 34.5686 -0.427711 18.2702 2.65939 2.28073e-09 -3.82388e-09 3.61599e-09 3.98969e-09 -6.63171e-09 6.2178e-09 2.28074e-09 -3.82388e-09 3.61599e-09 7.73091 5.47488 0.417314 2.28073e-09 -3.82388e-09 3.616e-09 2.90554 0.965183 0.102902 2.28073e-09 -3.82388e-09 3.61599e-09 10.2786 0.731801 0.0259123 2.28073e-09 -3.82388e-09 3.616e-09 2.22167 -0.733487 -0.20892 -1.84992e-13 -5.94763e-13 -1.80198e-13 -73.5277 25.261 -7.72459 12.4469 -5.76699 -22.4782 0.000338484 0.525337 -0.0738334 3.65317e-09 -6.11484e-10 -2.88636e-09 6.30139e-09 -1.06295e-09 -4.99251e-09 3.65315e-09 -6.11489e-10 -2.88636e-09 -7.73091 5.47488 -0.417314 3.65316e-09 -6.1149e-10 -2.88637e-09 -2.90554 0.965183 -0.102902 3.65315e-09 -6.11489e-10 -2.88636e-09 -10.2786 0.731801 -0.0259123 3.65317e-09 -6.11487e-10 -2.88636e-09 -2.22167 -0.733487 0.20892 -2.03217e-16 0.0 -3.88251e-19 0.40468 -31.8943 4.5697 -0.00510467 9.35341 0.190912 -2.09654 -12.9605 -5.08164 2.03217e-16 0.0 3.88251e-19 -8.20653 -27.4613 -8.59348 0.0191963 6.43815 -0.0240717 0.78467 -2.69943 0.294967
-7.12069 83.5837 126.222 177.493 -1.7152 -152.807 -10.6805 -25.4917 -6.77273 4.12265 15.407 -2.01842 -0.314172 16.5863 -8.8166 4.65862 -10.2154 -14.6149 -0.0 0.0 0.0 -0.0 0.0 0.0 -1.51359e-13 -5.52027e-13 -1.31782e-13 89.1653 12.4687 -3.77181 -19.2181 -11.5852 37.5379 -0.594147 20.5112 3.02507 1.96764e-09 -3.40676e-09 3.23141e-09 3.44396e-09 -5.9095e-09 5.55855e-09 1.96764e-09 -3.40676e-09 3.2314e-09 7.73091 5.47488 0.417314 1.96764e-09 -3.40676e-09 3.23142e-09 2.90554 0.965183 0.102902 1.96764e-09 -3.40676e-09 3.2314e-09 10.2786 0.731801 0.0259123 1.96764e-09 -3.40676e-09 3.23142e-09 2.22167 -0.733487 -0.20892 -1.51614e-13 -5.52023e-13 -1.32026e-13 -78.7402 26.0538 -8.35791 13.0298 -6.01279 -23.8259 0.000119809 1.17392 -0.164958 3.12854e-09 -9.442e-10 -2.79428e-09 5.39522e-09 -1.63829e-09 -4.8325e-09 3.12852e-09 -9.44203e-10 -2.79428e-09 -7.73091 5.47488 -0.417314 3.12853e-09 -9.44205e-10 -2.79429e-09 -2.90554 0.965183 -0.102902 3.12852e-09 -9.44204e-10 -2.79428e-09 -10.2786 0.731801 -0.0259123 3.12854e-09 -9.44203e-10 -2.79429e-09 -2.22167 -0.733487 0.20892 -2.03217e-16 0.0 -3.88251e-19 0.986734 -34.1146 5.07017 -0.00783324 9.99086 0.207037 -2.30013 -13.9934 -5.41783 2.03217e-16 0.0 3.88251e-19 -8.73073 -29.4448 -9.39814 0.0217837 7.00844 -0.0310149 0.819695 -3.12454 0.420011
-7.00197 83.5713 126.277 178.254 -1.947 -152.599 -9.94975 -25.7019 -6.37478 3.91856 15.186 -1.91865 -0.210008 16.6646 -8.78838 4.66526 -10.1743 -14.5377 -0.0 0.0 0.0 -0.0 0.0 0.0 -8.12005e-14 -4.25004e-13 -4.15646e-14 88.6282 11.9626 -4.20621 -19.396 -11.8357 37.9122 -0.70162 21.8796 3.25362 1.26961e-09 -2.3836e-09 2.27029e-09 2.22555e-09 -4.13676e-09 3.90892e-09 1.26961e-09 -2.38359e-09 2.27028e-09 7.73091 5.47488 0.417314 1.26961e-09 -2.3836e-09 2.2703e-09 2.90554 0.965183 0.102902 1.26961e-09 -2.38359e-09 2.27028e-09 10.2786 0.731801 0.0259123 1.26961e-09 -2.38359e-09 2.2703e-09 2.22167 -0.733487 -0.20892 -8.1476e-14 -4.24999e-13 -4.17914e-14 -78.6751 24.4707 -8.23813 12.7701 -5.84666 -23.2822 0.00300345 2.07409 -0.29154 1.97043e-09 -1.36843e-09 -2.35219e-09 3.39581e-09 -2.37127e-09 -4.06671e-09 1.97041e-09 -1.36843e-09 -2.35218e-09 -7.73091 5.47488 -0.417314 1.97042e-09 -1.36843e-09 -2.35219e-09 -2.90554 0.965183 -0.102902 1.97041e-09 -1.36843e-09 -2.35219e-09 -10.2786 0.731801 -0.0259123 1.97043e-09 -1.36843e-09 -2.35219e-09 -2.22167 -0.733487 0.20892 -2.03217e-16 0.0 -3.88251e-19 1.5542 -34.3206 5.11058 -0.00832617 10.1118 0.206924 -2.24831 -13.843 -5.29196 2.03217e-16 0.0 3.88251e-19 -8.09877 -29.6624 -9.38397 0.0228893 7.03056 -0.0315617 0.829123 -3.06284 0.560551
-7.01666 83.5716 126.274 178.261 -1.9989 -152.641 -8.79961 -25.173 -5.73845 3.59637 14.53 -1.75707 -0.182028 16.2716 -8.47532 4.62151 -9.86818 -14.0098 -0.0 0.0 0.0 -0.0 0.0 0.0 -5.22972e-15 -2.71543e-13 5.48366e-14 85.4862 11.3735 -4.55324 -19.3044 -11.995 37.2882 -0.693503 21.9686 3.265 4.81463e-10 -1.18059e-09 1.19074e-09 8.49588e-10 -2.05218e-09 2.0554e-09 4.81465e-10 -1.18058e-09 1.19073e-09 7.73091 5.47488 0.417314 4.81461e-10 -1.18059e-09 1.19075e-09 2.90554 0.965183 0.102902 4.81469e-10 -1.18058e-09 1.19074e-09 10.2786 0.731801 0.0259123 4.81461e-10 -1.18058e-09 1.19075e-09 2.22167 -0.733487 -0.20892 -5.51319e-15 -2.71538e-13 5.46289e-14 -76.4156 22.1236 -7.84486 12.1943 -5.53164 -22.045 0.00904028 2.89053 -0.406536 6.73723e-10 -1.73749e-09 -1.74433e-09 1.15745e-09 -3.00863e-09 -3.01422e-09 6.73715e-10 -1.73749e-09 -1.74432e-09 -7.73091 5.47488 -0.417314 6.73724e-10 -1.73749e-09 -1.74433e-09 -2.90554 0.965183 -0.102902 6.73713e-10 -1.73749e-09 -1.74433e-09 -10.2786 0.731801 -0.0259123 6.73724e-10 -1.73749e-09 -1.74434e-09 -2.22167 -0.733487 0.20892 -2.03217e-16 0.0 -3.88251e-19 2.05208 -33.6365 4.98477 -0.00765776 9.99142 0.200267 -2.11137 -13.2297 -5.03387 2.03217e-16 0.0 3.88251e-19 -7.04068 -29.0974 -9.00415 0.0233698 6.81248 -0.0292068 0.822324 -2.81034 0.661945
-7.01533 83.5703 126.262 178.291 -2.0366 -152.674 -8.07474 -24.8636 -5.34147 3.42933 14.1688 -1.6603 -0.183229 16.0477 -8.27447 4.62382 -9.72229 -13.666 -0.0 0.0 0.0 -0.0 0.0 0.0 4.56088e-14 -1.49489e-13 1.21557e-13 83.6884 11.7025 -4.85085 -19.4138 -12.2918 37.2751 -0.537476 20.3693 2.99111 -1.01978e-10 -2.23943e-10 4.50866e-10 -1.68787e-10 -3.94411e-10 7.84452e-10 -1.01977e-10 -2.23938e-10 4.50853e-10 7.73091 5.47488 0.417314 -1.01982e-10 -2.23941e-10 4.50872e-10 2.90554 0.965183 0.102902 -1.01972e-10 -2.2394e-10 4.50863e-10 10.2786 0.731801 0.0259123 -1.01981e-10 -2.23939e-10 4.50872e-10 2.22167 -0.733487 -0.20892 4.53382e-14 -1.49485e-13 1.21358e-13 -75.092 20.6286 -7.61678 11.8448 -5.34044 -21.3099 0.0132772 3.28795 -0.462604 -2.66696e-10 -1.9047e-09 -1.15496e-09 -4.65568e-10 -3.2971e-09 -1.9941e-09 -2.66701e-10 -1.9047e-09 -1.15495e-09 -7.73091 5.47488 -0.417314 -2.66692e-10 -1.90471e-09 -1.15496e-09 -2.90554 0.965183 -0.102902 -2.66703e-10 -1.9047e-09 -1.15496e-09 -10.2786 0.731801 -0.0259123 -2.66694e-10 -1.9047e-09 -1.15497e-09 -2.22167 -0.733487 0.20892 -2.03217e-16 0.0 -3.88251e-19 2.4478 -33.185 5.00272 -0.00709893 9.90473 0.196807 -2.05574 -12.8745 -4.97256 2.03217e-16 0.0 3.88251e-19 -6.31687 -28.728 -8.73235 0.0241493 6.66216 -0.0274547 0.811989 -2.66305 0.669721
